Coordinates
version=1
nRows=14
nColumns=40
inDegrees=yes

Units are S.I. units (second, meters, Newtons, ...)
Angles are in degrees.

endheader
time	pelvis_tilt	pelvis_list	pelvis_rotation	pelvis_tx	pelvis_ty	pelvis_tz	hip_flexion_r	hip_adduction_r	hip_rotation_r	knee_angle_r	knee_angle_r_beta	ankle_angle_r	subtalar_angle_r	mtp_angle_r	hip_flexion_l	hip_adduction_l	hip_rotation_l	knee_angle_l	knee_angle_l_beta	ankle_angle_l	subtalar_angle_l	mtp_angle_l	lumbar_extension	lumbar_bending	lumbar_rotation	arm_flex_r	arm_add_r	arm_rot_r	elbow_flex_r	pro_sup_r	wrist_flex_r	wrist_dev_r	arm_flex_l	arm_add_l	arm_rot_l	elbow_flex_l	pro_sup_l	wrist_flex_l	wrist_dev_l
     15.60764286	     -3.66534104	     -3.53891085	     -2.83979788	      0.94279961	      0.92405762	      0.42018801	     27.42156649	     -2.16018280	    -14.79908269	     13.47387350	     13.47387350	      1.87162300	      4.77314870	      7.30101222	     -2.41281351	     -2.92804206	    -12.06371131	     11.86466590	     11.86466590	     18.99284484	     -1.97582781	     -3.41461774	    -10.88603802	      4.46578341	      2.01093415	    -15.10430920	    -12.82961101	     -4.73030158	     22.73895271	     47.01463470	      0.00000000	      0.00000000	      7.61498710	    -16.30405332	    -13.82048153	     84.89390788	     47.48819664	      0.00000000	      0.00000000
     15.62028571	     -3.73423985	     -3.44631157	     -2.87955602	      0.94452921	      0.92241878	      0.42184868	     26.97286621	     -1.83321132	    -15.38746969	     12.64331650	     12.64331650	      1.76986623	      5.40218073	      7.91669840	     -3.03023061	     -2.91952610	    -12.13849638	     11.83965126	     11.83965126	     19.36899811	     -1.79868285	     -3.57312990	    -10.63548443	      4.39391235	      2.04288684	    -16.23354818	    -12.73412897	     -5.12170948	     22.70997851	     47.03450033	      0.00000000	      0.00000000	      7.81483675	    -16.31787269	    -14.16908338	     86.01706102	     47.54510047	      0.00000000	      0.00000000
     15.63292857	     -3.76826609	     -3.43313477	     -2.90635635	      0.94630665	      0.92092067	      0.42372150	     26.57746811	     -1.48421814	    -15.86161191	     12.39903769	     12.39903769	      1.53052800	      5.76496856	      7.93732283	     -3.59626171	     -3.05188041	    -12.26041518	     12.01189101	     12.01189101	     19.81910261	     -1.55105159	     -3.66279956	    -10.44454396	      4.40926215	      2.10405954	    -17.19310795	    -12.65240569	     -5.57819452	     22.81585715	     47.05445108	      0.00000000	      0.00000000	      7.91203558	    -16.25467918	    -14.56446190	     87.18329411	     47.60817751	      0.00000000	      0.00000000
     15.64557143	     -3.85624642	     -3.44272570	     -2.92216507	      0.94820023	      0.91941559	      0.42589413	     26.23505403	     -1.10917487	    -16.01699084	     12.41492170	     12.41492170	      0.53974803	      5.56320486	      5.68890845	     -3.94604709	     -3.32834104	    -12.66559238	     12.55542074	     12.55542074	     20.62936773	     -0.81587850	     -3.13713628	    -10.19621500	      4.43121500	      1.88513370	    -17.92245530	    -12.48886447	     -7.06790602	     23.36062168	     47.12269880	      0.00000000	      0.00000000	      7.67149134	    -16.24574302	    -15.33762833	     88.37140581	     47.74912724	      0.00000000	      0.00000000
     15.65821429	     -3.94271994	     -3.52164266	     -2.91813609	      0.95009497	      0.91809152	      0.42816316	     25.98381879	     -0.73982709	    -15.99155207	     12.88433870	     12.88433870	     -0.09663106	      5.16698006	      4.09385916	     -4.21937801	     -3.67562764	    -12.79266131	     13.20646515	     13.20646515	     21.18048763	     -0.61139462	     -3.09169629	     -9.92940392	      4.56214094	      2.00164837	    -18.33503738	    -12.37256731	     -7.42380675	     23.12020909	     47.14431541	      0.00000000	      0.00000000	      7.74099439	    -16.12750492	    -15.51231702	     88.95542785	     47.80326120	      0.00000000	      0.00000000
     15.67085714	     -3.97678595	     -3.61095298	     -2.96261575	      0.95216147	      0.91731646	      0.43064327	     25.59250365	     -0.38252204	    -15.96258296	     13.39107620	     13.39107620	     -0.24544665	      5.08705967	      3.90564995	     -4.71005294	     -3.96629829	    -12.75031263	     13.53387697	     13.53387697	     21.37509930	     -0.76139540	     -3.15606775	     -9.69334969	      4.65434536	      1.92267367	    -18.51937204	    -12.27987800	     -7.43483898	     23.04600767	     47.14549609	      0.00000000	      0.00000000	      7.73829362	    -16.11987094	    -15.56018895	     89.01676445	     47.80933326	      0.00000000	      0.00000000
     15.68350000	     -4.08859041	     -3.71027737	     -2.89953814	      0.95388528	      0.91631846	      0.43315603	     25.65304375	     -0.15423566	    -15.68479620	     14.63759905	     14.63759905	     -0.37882090	      4.28283783	      2.52548500	     -4.53460852	     -4.47677108	    -12.75178137	     14.94277509	     14.94277509	     21.76792467	     -0.84719034	     -3.37184960	     -9.48358758	      4.80923477	      2.06846587	    -18.47820428	    -12.21868533	     -7.48619241	     22.98822222	     47.14787573	      0.00000000	      0.00000000	      7.73777864	    -15.90312445	    -15.82450841	     89.39942274	     47.84321368	      0.00000000	      0.00000000
     15.69614286	     -4.12260190	     -3.88079150	     -2.87693298	      0.95588337	      0.91584098	      0.43600475	     25.22184971	      0.32655731	    -15.01394806	     15.02434371	     15.02434371	     -1.73100924	      2.83228357	     -1.93506788	     -4.44301543	     -5.18665500	    -13.34351398	     16.45286019	     16.45286019	     22.34792506	     -0.00342446	     -3.23971267	     -9.33026500	      5.00058524	      1.74637731	    -17.90477145	    -12.16548944	     -7.59050735	     22.72847771	     47.14780164	      0.00000000	      0.00000000	      7.15220368	    -15.68811272	    -16.66149419	     89.90433203	     47.95447289	      0.00000000	      0.00000000
     15.70878571	     -4.09035300	     -4.01429238	     -2.83567456	      0.95773432	      0.91595171	      0.43867885	     24.93675314	      0.55084521	    -14.85719080	     15.97604854	     15.97604854	     -1.32032244	      2.54816067	     -2.43669409	     -4.38033112	     -5.70210273	    -13.09625397	     17.88015370	     17.88015370	     22.24862833	     -0.60539721	     -3.49050888	     -9.31210953	      5.17037623	      1.80711224	    -17.46638458	    -12.12993406	     -7.55345919	     22.79703415	     47.14277168	      0.00000000	      0.00000000	      7.03293229	    -15.50462402	    -16.62960362	     89.75841833	     47.95484307	      0.00000000	      0.00000000
     15.72142857	     -4.15653353	     -4.13437915	     -2.78977119	      0.95938092	      0.91624456	      0.44142540	     24.74268978	      0.77203312	    -14.59722974	     16.82847873	     16.82847873	     -0.81740646	      2.11175223	     -2.90816202	     -3.90306379	     -6.30058687	    -12.87274188	     19.83938156	     19.83938156	     21.96295506	     -1.29268724	     -4.00978456	     -9.18723729	      5.33340174	      1.83327925	    -16.77311628	    -12.03651081	     -7.48006220	     22.91958593	     47.13407550	      0.00000000	      0.00000000	      6.79060851	    -15.26132058	    -16.62996233	     89.46320565	     47.95450280	      0.00000000	      0.00000000
     15.73407143	     -4.16949460	     -4.26963585	     -2.75093524	      0.96092438	      0.91698534	      0.44424006	     24.39184491	      1.02714230	    -14.34629479	     17.44985417	     17.44985417	     -0.20454628	      1.74025354	     -3.25605657	     -3.28136736	     -6.95581544	    -12.61486323	     22.12034306	     22.12034306	     21.37347368	     -2.11716421	     -4.69988580	     -9.16716004	      5.48402570	      1.84637701	    -15.86952172	    -11.95742644	     -7.38089475	     23.10165668	     47.12278659	      0.00000000	      0.00000000	      6.49102815	    -14.97560640	    -16.61321682	     89.04459329	     47.94988240	      0.00000000	      0.00000000
     15.74671429	     -4.18805718	     -4.39765039	     -2.68302546	      0.96231194	      0.91800622	      0.44702348	     23.95642003	      1.28121571	    -14.15088756	     17.85319275	     17.85319275	      0.46577643	      1.44976238	     -3.48170586	     -2.37606956	     -7.64835939	    -12.22947096	     24.83690412	     24.83690412	     20.41814770	     -3.20848711	     -5.62812654	     -9.15875313	      5.65379102	      1.86399865	    -14.75653299	    -11.87829098	     -7.24566780	     23.34852322	     47.10725927	      0.00000000	      0.00000000	      6.12927993	    -14.65624949	    -16.56875215	     88.47719974	     47.94040592	      0.00000000	      0.00000000
     15.75935714	     -4.27578922	     -4.47615737	     -2.61570654	      0.96343794	      0.91913563	      0.44972007	     23.56707264	      1.52444540	    -13.80367773	     18.14147161	     18.14147161	      1.38184484	      0.99729190	     -2.97874671	     -1.32412707	     -8.16765819	    -11.43565105	     27.33118058	     27.33118058	     17.13387611	     -6.06691424	    -10.90805114	     -9.06191506	      5.76504346	      1.64472146	    -13.17199941	    -11.89007203	     -6.19774332	     23.03589209	     47.01613844	      0.00000000	      0.00000000	      5.73367556	    -14.17708397	    -16.96784730	     87.25661022	     47.98717125	      0.00000000	      0.00000000
     15.77200000	     -4.25644343	     -4.57160088	     -2.49319449	      0.96442495	      0.92053553	      0.45229278	     22.92615355	      1.71285268	    -13.93428865	     18.16544430	     18.16544430	      2.14603534	      1.22635858	     -2.95446228	     -0.00339870	     -8.76723909	    -10.61542414	     30.56002486	     30.56002486	     14.67843803	     -8.49020134	    -13.34566549	     -9.14835620	      5.87899964	      1.62772584	    -11.91121941	    -11.91398734	     -5.37894133	     23.77520288	     46.89726007	      0.00000000	      0.00000000	      5.31889219	    -13.92940745	    -16.57082338	     86.51643137	     47.98558659	      0.00000000	      0.00000000
